<svg width="48" height="37" viewBox="0 0 48 37" fill="none" xmlns="http://www.w3.org/2000/svg">
<path d="M43.5556 5.69231H36L34.2 1.07747C34.0756 0.761692 33.8478 0.488734 33.5475 0.295886C33.2472 0.103038 32.8891 -0.000296111 32.5222 6.37349e-07H15.4778C14.7278 6.37349e-07 14.0556 0.432006 13.8056 1.07747L12 5.69231H4.44444C1.98889 5.69231 0 7.51181 0 9.75824V32.9341C0 35.1805 1.98889 37 4.44444 37H43.5556C46.0111 37 48 35.1805 48 32.9341V9.75824C48 7.51181 46.0111 5.69231 43.5556 5.69231ZM44 32.9341C44 33.1577 43.8 33.3407 43.5556 33.3407H4.44444C4.2 33.3407 4 33.1577 4 32.9341V9.75824C4 9.53462 4.2 9.35165 4.44444 9.35165H14.8167L15.7667 6.92225L17.0389 3.65934H30.9556L32.2278 6.92225L33.1778 9.35165H43.5556C43.8 9.35165 44 9.53462 44 9.75824V32.9341ZM24 12.6044C19.0889 12.6044 15.1111 16.2434 15.1111 20.7363C15.1111 25.2291 19.0889 28.8681 24 28.8681C28.9111 28.8681 32.8889 25.2291 32.8889 20.7363C32.8889 16.2434 28.9111 12.6044 24 12.6044ZM24 25.6154C21.0556 25.6154 18.6667 23.4299 18.6667 20.7363C18.6667 18.0426 21.0556 15.8571 24 15.8571C26.9444 15.8571 29.3333 18.0426 29.3333 20.7363C29.3333 23.4299 26.9444 25.6154 24 25.6154Z" fill="#2F2963"/>
</svg>
