<svg width="167" height="62" viewBox="0 0 167 62" fill="none" xmlns="http://www.w3.org/2000/svg">
<path d="M14.6914 11.7832L7.73047 33H2.12305L11.6328 7.40625H15.2012L14.6914 11.7832ZM20.4746 33L13.4961 11.7832L12.9336 7.40625H16.5371L26.0996 33H20.4746ZM20.1582 23.4727V27.6035H6.64062V23.4727H20.1582ZM47.1427 7.40625V33H41.8693L31.5861 15.8438V33H26.3127V7.40625H31.5861L41.8869 24.5801V7.40625H47.1427ZM52.5941 7.40625L57.9378 19.0781L63.2816 7.40625H69.0296L60.6097 23.6836V33H55.2659V23.6836L46.8284 7.40625H52.5941ZM80.9673 7.40625V33H75.7114V7.40625H80.9673ZM88.8423 7.40625V11.5371H67.9594V7.40625H88.8423ZM106.756 17.8301V21.9434H93.3971V17.8301H106.756ZM94.9616 7.40625V33H89.6881V7.40625H94.9616ZM110.518 7.40625V33H105.262V7.40625H110.518ZM118.554 7.40625V33H113.298V7.40625H118.554ZM142.163 7.40625V33H136.89L126.606 15.8438V33H121.333V7.40625H126.606L136.907 24.5801V7.40625H142.163ZM164.876 19.623V29.7656C164.478 30.2461 163.862 30.7676 163.03 31.3301C162.198 31.8809 161.126 32.3555 159.814 32.7539C158.501 33.1523 156.913 33.3516 155.05 33.3516C153.398 33.3516 151.892 33.082 150.532 32.543C149.173 31.9922 148.001 31.1895 147.017 30.1348C146.044 29.0801 145.294 27.791 144.767 26.2676C144.239 24.7324 143.976 22.9805 143.976 21.0117V19.4121C143.976 17.4434 144.228 15.6914 144.732 14.1562C145.247 12.6211 145.98 11.3262 146.929 10.2715C147.878 9.2168 149.009 8.41406 150.321 7.86328C151.634 7.3125 153.093 7.03711 154.698 7.03711C156.925 7.03711 158.753 7.40039 160.183 8.12695C161.612 8.8418 162.702 9.83789 163.452 11.1152C164.214 12.3809 164.683 13.834 164.859 15.4746H159.743C159.614 14.6074 159.368 13.8516 159.005 13.207C158.642 12.5625 158.12 12.0586 157.441 11.6953C156.773 11.332 155.905 11.1504 154.839 11.1504C153.96 11.1504 153.175 11.332 152.484 11.6953C151.804 12.0469 151.23 12.5684 150.761 13.2598C150.292 13.9512 149.935 14.8066 149.689 15.8262C149.443 16.8457 149.319 18.0293 149.319 19.377V21.0117C149.319 22.3477 149.448 23.5312 149.706 24.5625C149.964 25.582 150.345 26.4434 150.849 27.1465C151.364 27.8379 151.997 28.3594 152.747 28.7109C153.497 29.0625 154.37 29.2383 155.366 29.2383C156.198 29.2383 156.89 29.168 157.441 29.0273C158.003 28.8867 158.454 28.7168 158.794 28.5176C159.146 28.3066 159.415 28.1074 159.603 27.9199V23.3848H154.786V19.623H164.876Z" fill="#C4A77D"/>
<path d="M10.4623 45.6396H4.98379L4.95449 42.6221H9.5541C10.3646 42.6221 11.0287 42.5195 11.5463 42.3145C12.0639 42.0996 12.4496 41.792 12.7035 41.3916C12.9672 40.9814 13.099 40.4834 13.099 39.8975C13.099 39.2334 12.9721 38.6963 12.7182 38.2861C12.474 37.876 12.0883 37.5781 11.5609 37.3926C11.0434 37.207 10.3744 37.1143 9.5541 37.1143H6.50723V55H2.11269V33.6719H9.5541C10.7943 33.6719 11.9027 33.7891 12.8793 34.0234C13.8656 34.2578 14.7006 34.6143 15.3842 35.0928C16.0678 35.5713 16.5902 36.1768 16.9516 36.9092C17.3129 37.6318 17.4936 38.4912 17.4936 39.4873C17.4936 40.3662 17.2934 41.1768 16.893 41.9189C16.5023 42.6611 15.8822 43.2666 15.0326 43.7354C14.1928 44.2041 13.0941 44.4629 11.7367 44.5117L10.4623 45.6396ZM10.2719 55H3.78262L5.49648 51.5723H10.2719C11.0434 51.5723 11.6732 51.4502 12.1615 51.2061C12.6498 50.9521 13.0111 50.6104 13.2455 50.1807C13.4799 49.751 13.5971 49.2578 13.5971 48.7012C13.5971 48.0762 13.4896 47.5342 13.2748 47.0752C13.0697 46.6162 12.7377 46.2646 12.2787 46.0205C11.8197 45.7666 11.2143 45.6396 10.4623 45.6396H6.2289L6.2582 42.6221H11.5316L12.5424 43.8086C13.8412 43.7891 14.8861 44.0186 15.6771 44.4971C16.4779 44.9658 17.059 45.5762 17.4203 46.3281C17.7914 47.0801 17.977 47.8857 17.977 48.7451C17.977 50.1123 17.6791 51.2646 17.0834 52.2021C16.4877 53.1299 15.6137 53.8281 14.4613 54.2969C13.3187 54.7656 11.9223 55 10.2719 55ZM31.2502 33.6719H35.6301V47.7637C35.6301 49.4043 35.2785 50.7861 34.5754 51.9092C33.882 53.0322 32.9201 53.877 31.6896 54.4434C30.4689 55.0098 29.0627 55.293 27.4709 55.293C25.8791 55.293 24.4631 55.0098 23.2229 54.4434C21.9924 53.877 21.0256 53.0322 20.3225 51.9092C19.6291 50.7861 19.2824 49.4043 19.2824 47.7637V33.6719H23.677V47.7637C23.677 48.7207 23.8283 49.502 24.1311 50.1074C24.4338 50.7129 24.8684 51.1572 25.4348 51.4404C26.0109 51.7236 26.6896 51.8652 27.4709 51.8652C28.2717 51.8652 28.9504 51.7236 29.507 51.4404C30.0734 51.1572 30.5031 50.7129 30.7961 50.1074C31.0988 49.502 31.2502 48.7207 31.2502 47.7637V33.6719ZM46.9844 33.6719V55H42.6045V33.6719H46.9844ZM53.5469 33.6719V37.1143H36.1445V33.6719H53.5469ZM76.651 43.8379V44.8486C76.651 46.4697 76.4312 47.9248 75.9918 49.2139C75.5523 50.5029 74.9322 51.6016 74.1314 52.5098C73.3307 53.4082 72.3736 54.0967 71.2603 54.5752C70.1568 55.0537 68.9312 55.293 67.5836 55.293C66.2457 55.293 65.0201 55.0537 63.9068 54.5752C62.8033 54.0967 61.8463 53.4082 61.0357 52.5098C60.2252 51.6016 59.5953 50.5029 59.1461 49.2139C58.7066 47.9248 58.4869 46.4697 58.4869 44.8486V43.8379C58.4869 42.207 58.7066 40.752 59.1461 39.4727C59.5855 38.1836 60.2057 37.085 61.0064 36.1768C61.817 35.2686 62.774 34.5752 63.8775 34.0967C64.9908 33.6182 66.2164 33.3789 67.5543 33.3789C68.902 33.3789 70.1275 33.6182 71.2311 34.0967C72.3443 34.5752 73.3014 35.2686 74.1021 36.1768C74.9127 37.085 75.5377 38.1836 75.9771 39.4727C76.4264 40.752 76.651 42.207 76.651 43.8379ZM72.2125 44.8486V43.8086C72.2125 42.6758 72.11 41.6797 71.9049 40.8203C71.6998 39.9609 71.3971 39.2383 70.9967 38.6523C70.5963 38.0664 70.108 37.627 69.5318 37.334C68.9557 37.0312 68.2965 36.8799 67.5543 36.8799C66.8121 36.8799 66.1529 37.0312 65.5768 37.334C65.0103 37.627 64.527 38.0664 64.1266 38.6523C63.7359 39.2383 63.4381 39.9609 63.233 40.8203C63.0279 41.6797 62.9254 42.6758 62.9254 43.8086V44.8486C62.9254 45.9717 63.0279 46.9678 63.233 47.8369C63.4381 48.6963 63.7408 49.4238 64.1412 50.0195C64.5416 50.6055 65.0299 51.0498 65.6061 51.3525C66.1822 51.6553 66.8414 51.8066 67.5836 51.8066C68.3258 51.8066 68.985 51.6553 69.5611 51.3525C70.1373 51.0498 70.6207 50.6055 71.0113 50.0195C71.402 49.4238 71.6998 48.6963 71.9049 47.8369C72.11 46.9678 72.2125 45.9717 72.2125 44.8486ZM78.015 33.6719H85.9691C87.6 33.6719 89.0014 33.916 90.1732 34.4043C91.3549 34.8926 92.2631 35.6152 92.8979 36.5723C93.5326 37.5293 93.85 38.7061 93.85 40.1025C93.85 41.2451 93.6547 42.2266 93.2641 43.0469C92.8832 43.8574 92.3412 44.5361 91.6381 45.083C90.9447 45.6201 90.1293 46.0498 89.1918 46.3721L87.8002 47.1045H80.8861L80.8568 43.6768H85.9984C86.7699 43.6768 87.4096 43.54 87.9174 43.2666C88.4252 42.9932 88.8061 42.6123 89.06 42.124C89.3236 41.6357 89.4555 41.0693 89.4555 40.4248C89.4555 39.7412 89.3285 39.1504 89.0746 38.6523C88.8207 38.1543 88.435 37.7734 87.9174 37.5098C87.3998 37.2461 86.7504 37.1143 85.9691 37.1143H82.4096V55H78.015V33.6719ZM89.9389 55L85.0756 45.4932L89.7191 45.4639L94.641 54.7949V55H89.9389ZM104.106 37.3193L98.3049 55H93.632L101.557 33.6719H104.53L104.106 37.3193ZM108.925 55L103.11 37.3193L102.641 33.6719H105.644L113.612 55H108.925ZM108.661 47.0605V50.5029H97.3967V47.0605H108.661ZM131.148 33.6719V55H126.754L118.185 40.7031V55H113.79V33.6719H118.185L126.769 47.9834V33.6719H131.148ZM150.076 43.8525V52.3047C149.744 52.7051 149.231 53.1396 148.538 53.6084C147.845 54.0674 146.951 54.4629 145.857 54.7949C144.763 55.127 143.44 55.293 141.888 55.293C140.511 55.293 139.256 55.0684 138.123 54.6191C136.99 54.1602 136.013 53.4912 135.193 52.6123C134.383 51.7334 133.758 50.6592 133.318 49.3896C132.879 48.1104 132.659 46.6504 132.659 45.0098V43.6768C132.659 42.0361 132.869 40.5762 133.289 39.2969C133.719 38.0176 134.329 36.9385 135.12 36.0596C135.911 35.1807 136.853 34.5117 137.947 34.0527C139.041 33.5938 140.257 33.3643 141.595 33.3643C143.45 33.3643 144.973 33.667 146.165 34.2725C147.356 34.8682 148.264 35.6982 148.889 36.7627C149.524 37.8174 149.915 39.0283 150.061 40.3955H145.799C145.691 39.6729 145.486 39.043 145.183 38.5059C144.881 37.9688 144.446 37.5488 143.88 37.2461C143.323 36.9434 142.6 36.792 141.712 36.792C140.979 36.792 140.325 36.9434 139.749 37.2461C139.182 37.5391 138.704 37.9736 138.313 38.5498C137.923 39.126 137.625 39.8389 137.42 40.6885C137.215 41.5381 137.112 42.5244 137.112 43.6475V45.0098C137.112 46.123 137.22 47.1094 137.434 47.9688C137.649 48.8184 137.967 49.5361 138.387 50.1221C138.816 50.6982 139.344 51.1328 139.969 51.4258C140.594 51.7188 141.321 51.8652 142.151 51.8652C142.845 51.8652 143.421 51.8066 143.88 51.6895C144.348 51.5723 144.724 51.4307 145.008 51.2646C145.301 51.0889 145.525 50.9229 145.681 50.7666V46.9873H141.668V43.8525H150.076ZM166.132 51.5723V55H154.78V51.5723H166.132ZM156.215 33.6719V55H151.821V33.6719H156.215ZM164.653 42.3584V45.6982H154.78V42.3584H164.653ZM166.118 33.6719V37.1143H154.78V33.6719H166.118Z" fill="#C4A77D"/>
</svg>
